<mxfile host="Electron" modified="2023-12-04T00:04:20.631Z" agent="Mozilla/5.0 (Windows NT 10.0; Win64; x64) AppleWebKit/537.36 (KHTML, like Gecko) draw.io/22.0.3 Chrome/114.0.5735.289 Electron/25.8.4 Safari/537.36" etag="OTlSXrcSuu3LPj0z_DBt" version="22.0.3" type="device">
  <diagram name="Trang-1" id="OBedKjTrKFi_s6ULvkvS">
    <mxGraphModel dx="2949" dy="1927" grid="1" gridSize="10" guides="1" tooltips="1" connect="1" arrows="1" fold="1" page="1" pageScale="1" pageWidth="827" pageHeight="1169" math="0" shadow="0">
      <root>
        <mxCell id="0" />
        <mxCell id="1" parent="0" />
        <mxCell id="HcgYKYY__qKRsnIzj4oO-63" style="edgeStyle=orthogonalEdgeStyle;rounded=0;orthogonalLoop=1;jettySize=auto;html=1;" parent="1" source="HcgYKYY__qKRsnIzj4oO-3" target="HcgYKYY__qKRsnIzj4oO-5" edge="1">
          <mxGeometry relative="1" as="geometry" />
        </mxCell>
        <mxCell id="HcgYKYY__qKRsnIzj4oO-3" value="Start" style="ellipse;whiteSpace=wrap;html=1;" parent="1" vertex="1">
          <mxGeometry x="220" y="-10" width="120" height="80" as="geometry" />
        </mxCell>
        <mxCell id="HcgYKYY__qKRsnIzj4oO-4" style="edgeStyle=orthogonalEdgeStyle;rounded=0;orthogonalLoop=1;jettySize=auto;html=1;entryX=0.5;entryY=0;entryDx=0;entryDy=0;" parent="1" source="HcgYKYY__qKRsnIzj4oO-5" target="HcgYKYY__qKRsnIzj4oO-6" edge="1">
          <mxGeometry relative="1" as="geometry">
            <mxPoint x="280" y="220" as="targetPoint" />
          </mxGeometry>
        </mxCell>
        <mxCell id="HcgYKYY__qKRsnIzj4oO-5" value="hoVaTen[50], tuoi, soDienThoai[15], email[100],&lt;br&gt;value =0, location" style="rounded=0;whiteSpace=wrap;html=1;" parent="1" vertex="1">
          <mxGeometry x="170" y="140" width="220" height="50" as="geometry" />
        </mxCell>
        <mxCell id="HcgYKYY__qKRsnIzj4oO-64" style="edgeStyle=orthogonalEdgeStyle;rounded=0;orthogonalLoop=1;jettySize=auto;html=1;" parent="1" source="HcgYKYY__qKRsnIzj4oO-6" target="HcgYKYY__qKRsnIzj4oO-8" edge="1">
          <mxGeometry relative="1" as="geometry" />
        </mxCell>
        <mxCell id="HcgYKYY__qKRsnIzj4oO-6" value="MENU" style="shape=parallelogram;perimeter=parallelogramPerimeter;whiteSpace=wrap;html=1;fixedSize=1;" parent="1" vertex="1">
          <mxGeometry x="220" y="220" width="120" height="60" as="geometry" />
        </mxCell>
        <mxCell id="HcgYKYY__qKRsnIzj4oO-66" style="edgeStyle=orthogonalEdgeStyle;rounded=0;orthogonalLoop=1;jettySize=auto;html=1;" parent="1" source="HcgYKYY__qKRsnIzj4oO-8" edge="1">
          <mxGeometry relative="1" as="geometry">
            <mxPoint x="170" y="360" as="targetPoint" />
          </mxGeometry>
        </mxCell>
        <mxCell id="HcgYKYY__qKRsnIzj4oO-8" value="choice" style="shape=parallelogram;perimeter=parallelogramPerimeter;whiteSpace=wrap;html=1;fixedSize=1;" parent="1" vertex="1">
          <mxGeometry x="220" y="330" width="120" height="60" as="geometry" />
        </mxCell>
        <mxCell id="HcgYKYY__qKRsnIzj4oO-68" style="edgeStyle=orthogonalEdgeStyle;rounded=0;orthogonalLoop=1;jettySize=auto;html=1;" parent="1" source="HcgYKYY__qKRsnIzj4oO-11" target="HcgYKYY__qKRsnIzj4oO-28" edge="1">
          <mxGeometry relative="1" as="geometry" />
        </mxCell>
        <mxCell id="HcgYKYY__qKRsnIzj4oO-69" value="True" style="edgeLabel;html=1;align=center;verticalAlign=middle;resizable=0;points=[];" parent="HcgYKYY__qKRsnIzj4oO-68" vertex="1" connectable="0">
          <mxGeometry x="-0.3444" y="-1" relative="1" as="geometry">
            <mxPoint as="offset" />
          </mxGeometry>
        </mxCell>
        <mxCell id="HcgYKYY__qKRsnIzj4oO-70" style="edgeStyle=orthogonalEdgeStyle;rounded=0;orthogonalLoop=1;jettySize=auto;html=1;" parent="1" source="HcgYKYY__qKRsnIzj4oO-11" target="HcgYKYY__qKRsnIzj4oO-22" edge="1">
          <mxGeometry relative="1" as="geometry">
            <mxPoint x="-20" y="360" as="targetPoint" />
          </mxGeometry>
        </mxCell>
        <mxCell id="HcgYKYY__qKRsnIzj4oO-71" value="False" style="edgeLabel;html=1;align=center;verticalAlign=middle;resizable=0;points=[];" parent="HcgYKYY__qKRsnIzj4oO-70" vertex="1" connectable="0">
          <mxGeometry x="0.0073" y="1" relative="1" as="geometry">
            <mxPoint as="offset" />
          </mxGeometry>
        </mxCell>
        <mxCell id="HcgYKYY__qKRsnIzj4oO-11" value="choice == 1" style="rhombus;whiteSpace=wrap;html=1;" parent="1" vertex="1">
          <mxGeometry x="90" y="320" width="80" height="80" as="geometry" />
        </mxCell>
        <mxCell id="HcgYKYY__qKRsnIzj4oO-110" style="edgeStyle=orthogonalEdgeStyle;rounded=0;orthogonalLoop=1;jettySize=auto;html=1;entryX=0.5;entryY=0;entryDx=0;entryDy=0;" parent="1" source="HcgYKYY__qKRsnIzj4oO-14" target="HcgYKYY__qKRsnIzj4oO-56" edge="1">
          <mxGeometry relative="1" as="geometry" />
        </mxCell>
        <mxCell id="HcgYKYY__qKRsnIzj4oO-120" value="True" style="edgeLabel;html=1;align=center;verticalAlign=middle;resizable=0;points=[];" parent="HcgYKYY__qKRsnIzj4oO-110" vertex="1" connectable="0">
          <mxGeometry x="-0.2933" y="-3" relative="1" as="geometry">
            <mxPoint as="offset" />
          </mxGeometry>
        </mxCell>
        <mxCell id="HcgYKYY__qKRsnIzj4oO-118" style="edgeStyle=orthogonalEdgeStyle;rounded=0;orthogonalLoop=1;jettySize=auto;html=1;entryX=1;entryY=0.5;entryDx=0;entryDy=0;" parent="1" source="HcgYKYY__qKRsnIzj4oO-14" target="HcgYKYY__qKRsnIzj4oO-16" edge="1">
          <mxGeometry relative="1" as="geometry">
            <mxPoint x="-1120" y="360" as="targetPoint" />
          </mxGeometry>
        </mxCell>
        <mxCell id="HcgYKYY__qKRsnIzj4oO-119" value="False" style="edgeLabel;html=1;align=center;verticalAlign=middle;resizable=0;points=[];" parent="HcgYKYY__qKRsnIzj4oO-118" vertex="1" connectable="0">
          <mxGeometry x="-0.0166" y="-1" relative="1" as="geometry">
            <mxPoint y="-1" as="offset" />
          </mxGeometry>
        </mxCell>
        <mxCell id="HcgYKYY__qKRsnIzj4oO-14" value="choice == 5" style="rhombus;whiteSpace=wrap;html=1;" parent="1" vertex="1">
          <mxGeometry x="-1030" y="320" width="80" height="80" as="geometry" />
        </mxCell>
        <mxCell id="HcgYKYY__qKRsnIzj4oO-122" style="edgeStyle=orthogonalEdgeStyle;rounded=0;orthogonalLoop=1;jettySize=auto;html=1;" parent="1" source="HcgYKYY__qKRsnIzj4oO-16" target="HcgYKYY__qKRsnIzj4oO-123" edge="1">
          <mxGeometry relative="1" as="geometry">
            <mxPoint x="-1240" y="440" as="targetPoint" />
          </mxGeometry>
        </mxCell>
        <mxCell id="HcgYKYY__qKRsnIzj4oO-124" value="True" style="edgeLabel;html=1;align=center;verticalAlign=middle;resizable=0;points=[];" parent="HcgYKYY__qKRsnIzj4oO-122" vertex="1" connectable="0">
          <mxGeometry x="-0.2778" y="1" relative="1" as="geometry">
            <mxPoint as="offset" />
          </mxGeometry>
        </mxCell>
        <mxCell id="HcgYKYY__qKRsnIzj4oO-125" style="edgeStyle=orthogonalEdgeStyle;rounded=0;orthogonalLoop=1;jettySize=auto;html=1;" parent="1" source="HcgYKYY__qKRsnIzj4oO-16" edge="1">
          <mxGeometry relative="1" as="geometry">
            <mxPoint x="-1390" y="360" as="targetPoint" />
          </mxGeometry>
        </mxCell>
        <mxCell id="HcgYKYY__qKRsnIzj4oO-126" value="False" style="edgeLabel;html=1;align=center;verticalAlign=middle;resizable=0;points=[];" parent="HcgYKYY__qKRsnIzj4oO-125" vertex="1" connectable="0">
          <mxGeometry x="-0.1312" relative="1" as="geometry">
            <mxPoint as="offset" />
          </mxGeometry>
        </mxCell>
        <mxCell id="HcgYKYY__qKRsnIzj4oO-16" value="choice == 6" style="rhombus;whiteSpace=wrap;html=1;" parent="1" vertex="1">
          <mxGeometry x="-1280" y="320" width="80" height="80" as="geometry" />
        </mxCell>
        <mxCell id="HcgYKYY__qKRsnIzj4oO-85" style="edgeStyle=orthogonalEdgeStyle;rounded=0;orthogonalLoop=1;jettySize=auto;html=1;entryX=0.5;entryY=0;entryDx=0;entryDy=0;" parent="1" source="HcgYKYY__qKRsnIzj4oO-19" target="HcgYKYY__qKRsnIzj4oO-40" edge="1">
          <mxGeometry relative="1" as="geometry" />
        </mxCell>
        <mxCell id="HcgYKYY__qKRsnIzj4oO-107" value="True" style="edgeLabel;html=1;align=center;verticalAlign=middle;resizable=0;points=[];" parent="HcgYKYY__qKRsnIzj4oO-85" vertex="1" connectable="0">
          <mxGeometry x="-0.1833" y="-3" relative="1" as="geometry">
            <mxPoint as="offset" />
          </mxGeometry>
        </mxCell>
        <mxCell id="HcgYKYY__qKRsnIzj4oO-106" style="edgeStyle=orthogonalEdgeStyle;rounded=0;orthogonalLoop=1;jettySize=auto;html=1;" parent="1" source="HcgYKYY__qKRsnIzj4oO-19" edge="1">
          <mxGeometry relative="1" as="geometry">
            <mxPoint x="-950" y="360" as="targetPoint" />
          </mxGeometry>
        </mxCell>
        <mxCell id="HcgYKYY__qKRsnIzj4oO-108" value="False" style="edgeLabel;html=1;align=center;verticalAlign=middle;resizable=0;points=[];" parent="HcgYKYY__qKRsnIzj4oO-106" vertex="1" connectable="0">
          <mxGeometry x="-0.1527" y="-3" relative="1" as="geometry">
            <mxPoint as="offset" />
          </mxGeometry>
        </mxCell>
        <mxCell id="HcgYKYY__qKRsnIzj4oO-19" value="choice == 4" style="rhombus;whiteSpace=wrap;html=1;" parent="1" vertex="1">
          <mxGeometry x="-770" y="320" width="80" height="80" as="geometry" />
        </mxCell>
        <mxCell id="HcgYKYY__qKRsnIzj4oO-72" style="edgeStyle=orthogonalEdgeStyle;rounded=0;orthogonalLoop=1;jettySize=auto;html=1;" parent="1" source="HcgYKYY__qKRsnIzj4oO-22" edge="1">
          <mxGeometry relative="1" as="geometry">
            <mxPoint x="-110" y="460" as="targetPoint" />
          </mxGeometry>
        </mxCell>
        <mxCell id="HcgYKYY__qKRsnIzj4oO-74" value="True" style="edgeLabel;html=1;align=center;verticalAlign=middle;resizable=0;points=[];" parent="HcgYKYY__qKRsnIzj4oO-72" vertex="1" connectable="0">
          <mxGeometry x="-0.394" relative="1" as="geometry">
            <mxPoint as="offset" />
          </mxGeometry>
        </mxCell>
        <mxCell id="HcgYKYY__qKRsnIzj4oO-75" style="edgeStyle=orthogonalEdgeStyle;rounded=0;orthogonalLoop=1;jettySize=auto;html=1;" parent="1" source="HcgYKYY__qKRsnIzj4oO-22" edge="1">
          <mxGeometry relative="1" as="geometry">
            <mxPoint x="-310" y="360" as="targetPoint" />
          </mxGeometry>
        </mxCell>
        <mxCell id="HcgYKYY__qKRsnIzj4oO-76" value="False" style="edgeLabel;html=1;align=center;verticalAlign=middle;resizable=0;points=[];" parent="HcgYKYY__qKRsnIzj4oO-75" vertex="1" connectable="0">
          <mxGeometry x="-0.107" relative="1" as="geometry">
            <mxPoint x="1" as="offset" />
          </mxGeometry>
        </mxCell>
        <mxCell id="HcgYKYY__qKRsnIzj4oO-22" value="choice == 2" style="rhombus;whiteSpace=wrap;html=1;" parent="1" vertex="1">
          <mxGeometry x="-150" y="320" width="80" height="80" as="geometry" />
        </mxCell>
        <mxCell id="HcgYKYY__qKRsnIzj4oO-77" style="edgeStyle=orthogonalEdgeStyle;rounded=0;orthogonalLoop=1;jettySize=auto;html=1;" parent="1" source="HcgYKYY__qKRsnIzj4oO-25" edge="1">
          <mxGeometry relative="1" as="geometry">
            <mxPoint x="-350" y="470" as="targetPoint" />
          </mxGeometry>
        </mxCell>
        <mxCell id="HcgYKYY__qKRsnIzj4oO-78" value="True" style="edgeLabel;html=1;align=center;verticalAlign=middle;resizable=0;points=[];" parent="HcgYKYY__qKRsnIzj4oO-77" vertex="1" connectable="0">
          <mxGeometry x="-0.1679" y="-4" relative="1" as="geometry">
            <mxPoint as="offset" />
          </mxGeometry>
        </mxCell>
        <mxCell id="HcgYKYY__qKRsnIzj4oO-83" style="edgeStyle=orthogonalEdgeStyle;rounded=0;orthogonalLoop=1;jettySize=auto;html=1;" parent="1" source="HcgYKYY__qKRsnIzj4oO-25" edge="1">
          <mxGeometry relative="1" as="geometry">
            <mxPoint x="-690" y="360" as="targetPoint" />
          </mxGeometry>
        </mxCell>
        <mxCell id="HcgYKYY__qKRsnIzj4oO-84" value="False" style="edgeLabel;html=1;align=center;verticalAlign=middle;resizable=0;points=[];" parent="HcgYKYY__qKRsnIzj4oO-83" vertex="1" connectable="0">
          <mxGeometry x="-0.0438" y="-2" relative="1" as="geometry">
            <mxPoint x="1" as="offset" />
          </mxGeometry>
        </mxCell>
        <mxCell id="HcgYKYY__qKRsnIzj4oO-25" value="choice == 3" style="rhombus;whiteSpace=wrap;html=1;" parent="1" vertex="1">
          <mxGeometry x="-390" y="320" width="80" height="80" as="geometry" />
        </mxCell>
        <mxCell id="HcgYKYY__qKRsnIzj4oO-129" style="edgeStyle=orthogonalEdgeStyle;rounded=0;orthogonalLoop=1;jettySize=auto;html=1;entryX=0.389;entryY=1.021;entryDx=0;entryDy=0;entryPerimeter=0;" parent="1" source="HcgYKYY__qKRsnIzj4oO-28" target="HcgYKYY__qKRsnIzj4oO-127" edge="1">
          <mxGeometry relative="1" as="geometry">
            <mxPoint x="-1460" y="490" as="targetPoint" />
            <Array as="points">
              <mxPoint x="130" y="1250" />
              <mxPoint x="-1460" y="1250" />
              <mxPoint x="-1460" y="402" />
            </Array>
          </mxGeometry>
        </mxCell>
        <mxCell id="HcgYKYY__qKRsnIzj4oO-28" value="sinhVien-&amp;gt;hoVaTen&lt;br&gt;sinhVien-&amp;gt;tuoi&lt;br&gt;sinhVien-&amp;gt;soDienThoai&lt;br&gt;sinhVien-&amp;gt;email" style="shape=parallelogram;perimeter=parallelogramPerimeter;whiteSpace=wrap;html=1;fixedSize=1;" parent="1" vertex="1">
          <mxGeometry x="45" y="460" width="170" height="80" as="geometry" />
        </mxCell>
        <mxCell id="HcgYKYY__qKRsnIzj4oO-73" style="edgeStyle=orthogonalEdgeStyle;rounded=0;orthogonalLoop=1;jettySize=auto;html=1;" parent="1" source="HcgYKYY__qKRsnIzj4oO-30" edge="1">
          <mxGeometry relative="1" as="geometry">
            <mxPoint x="-110" y="610" as="targetPoint" />
          </mxGeometry>
        </mxCell>
        <mxCell id="HcgYKYY__qKRsnIzj4oO-30" value="sinhVien-&amp;gt;hoVaTen&lt;br&gt;sinhVien-&amp;gt;tuoi&lt;br&gt;sinhVien-&amp;gt;soDienThoai&lt;br&gt;sinhVien-&amp;gt;email" style="shape=parallelogram;perimeter=parallelogramPerimeter;whiteSpace=wrap;html=1;fixedSize=1;" parent="1" vertex="1">
          <mxGeometry x="-195" y="460" width="170" height="80" as="geometry" />
        </mxCell>
        <mxCell id="HcgYKYY__qKRsnIzj4oO-136" style="edgeStyle=orthogonalEdgeStyle;rounded=0;orthogonalLoop=1;jettySize=auto;html=1;" parent="1" source="HcgYKYY__qKRsnIzj4oO-32" edge="1">
          <mxGeometry relative="1" as="geometry">
            <mxPoint x="-110" y="1250" as="targetPoint" />
          </mxGeometry>
        </mxCell>
        <mxCell id="HcgYKYY__qKRsnIzj4oO-32" value="value++" style="rounded=0;whiteSpace=wrap;html=1;" parent="1" vertex="1">
          <mxGeometry x="-170" y="610" width="120" height="70" as="geometry" />
        </mxCell>
        <mxCell id="HcgYKYY__qKRsnIzj4oO-79" style="edgeStyle=orthogonalEdgeStyle;rounded=0;orthogonalLoop=1;jettySize=auto;html=1;" parent="1" source="HcgYKYY__qKRsnIzj4oO-34" edge="1">
          <mxGeometry relative="1" as="geometry">
            <mxPoint x="-350" y="600" as="targetPoint" />
          </mxGeometry>
        </mxCell>
        <mxCell id="HcgYKYY__qKRsnIzj4oO-34" value="location" style="shape=parallelogram;perimeter=parallelogramPerimeter;whiteSpace=wrap;html=1;fixedSize=1;" parent="1" vertex="1">
          <mxGeometry x="-410" y="470" width="120" height="60" as="geometry" />
        </mxCell>
        <mxCell id="HcgYKYY__qKRsnIzj4oO-80" style="edgeStyle=orthogonalEdgeStyle;rounded=0;orthogonalLoop=1;jettySize=auto;html=1;entryX=0.5;entryY=0;entryDx=0;entryDy=0;" parent="1" source="HcgYKYY__qKRsnIzj4oO-37" target="HcgYKYY__qKRsnIzj4oO-38" edge="1">
          <mxGeometry relative="1" as="geometry">
            <mxPoint x="-350" y="750" as="targetPoint" />
          </mxGeometry>
        </mxCell>
        <mxCell id="HcgYKYY__qKRsnIzj4oO-81" value="True" style="edgeLabel;html=1;align=center;verticalAlign=middle;resizable=0;points=[];" parent="HcgYKYY__qKRsnIzj4oO-80" vertex="1" connectable="0">
          <mxGeometry x="-0.0544" y="2" relative="1" as="geometry">
            <mxPoint as="offset" />
          </mxGeometry>
        </mxCell>
        <mxCell id="HcgYKYY__qKRsnIzj4oO-82" style="edgeStyle=orthogonalEdgeStyle;rounded=0;orthogonalLoop=1;jettySize=auto;html=1;" parent="1" source="HcgYKYY__qKRsnIzj4oO-37" edge="1">
          <mxGeometry relative="1" as="geometry">
            <mxPoint x="-540" y="720" as="targetPoint" />
          </mxGeometry>
        </mxCell>
        <mxCell id="HcgYKYY__qKRsnIzj4oO-92" value="False" style="edgeLabel;html=1;align=center;verticalAlign=middle;resizable=0;points=[];" parent="HcgYKYY__qKRsnIzj4oO-82" vertex="1" connectable="0">
          <mxGeometry x="-0.5988" y="2" relative="1" as="geometry">
            <mxPoint as="offset" />
          </mxGeometry>
        </mxCell>
        <mxCell id="HcgYKYY__qKRsnIzj4oO-37" value="location &amp;gt;= 0 &amp;amp;&amp;amp; location &amp;lt; value" style="rhombus;whiteSpace=wrap;html=1;" parent="1" vertex="1">
          <mxGeometry x="-460" y="600" width="220" height="80" as="geometry" />
        </mxCell>
        <mxCell id="HcgYKYY__qKRsnIzj4oO-135" style="edgeStyle=orthogonalEdgeStyle;rounded=0;orthogonalLoop=1;jettySize=auto;html=1;" parent="1" source="HcgYKYY__qKRsnIzj4oO-38" edge="1">
          <mxGeometry relative="1" as="geometry">
            <mxPoint x="-350" y="1250" as="targetPoint" />
          </mxGeometry>
        </mxCell>
        <mxCell id="HcgYKYY__qKRsnIzj4oO-38" value="sinhVien-&amp;gt;hoVaTen&lt;br&gt;sinhVien-&amp;gt;tuoi&lt;br&gt;sinhVien-&amp;gt;soDienThoai&lt;br&gt;sinhVien-&amp;gt;email" style="shape=parallelogram;perimeter=parallelogramPerimeter;whiteSpace=wrap;html=1;fixedSize=1;" parent="1" vertex="1">
          <mxGeometry x="-435" y="734.5" width="170" height="80" as="geometry" />
        </mxCell>
        <mxCell id="HcgYKYY__qKRsnIzj4oO-86" style="edgeStyle=orthogonalEdgeStyle;rounded=0;orthogonalLoop=1;jettySize=auto;html=1;entryX=0.5;entryY=0;entryDx=0;entryDy=0;" parent="1" source="HcgYKYY__qKRsnIzj4oO-40" target="HcgYKYY__qKRsnIzj4oO-43" edge="1">
          <mxGeometry relative="1" as="geometry" />
        </mxCell>
        <mxCell id="HcgYKYY__qKRsnIzj4oO-40" value="location" style="shape=parallelogram;perimeter=parallelogramPerimeter;whiteSpace=wrap;html=1;fixedSize=1;" parent="1" vertex="1">
          <mxGeometry x="-790" y="440" width="120" height="60" as="geometry" />
        </mxCell>
        <mxCell id="HcgYKYY__qKRsnIzj4oO-90" style="edgeStyle=orthogonalEdgeStyle;rounded=0;orthogonalLoop=1;jettySize=auto;html=1;" parent="1" source="HcgYKYY__qKRsnIzj4oO-43" target="HcgYKYY__qKRsnIzj4oO-45" edge="1">
          <mxGeometry relative="1" as="geometry" />
        </mxCell>
        <mxCell id="HcgYKYY__qKRsnIzj4oO-94" value="True" style="edgeLabel;html=1;align=center;verticalAlign=middle;resizable=0;points=[];" parent="HcgYKYY__qKRsnIzj4oO-90" vertex="1" connectable="0">
          <mxGeometry x="-0.1214" y="-2" relative="1" as="geometry">
            <mxPoint as="offset" />
          </mxGeometry>
        </mxCell>
        <mxCell id="HcgYKYY__qKRsnIzj4oO-91" style="edgeStyle=orthogonalEdgeStyle;rounded=0;orthogonalLoop=1;jettySize=auto;html=1;" parent="1" source="HcgYKYY__qKRsnIzj4oO-43" target="HcgYKYY__qKRsnIzj4oO-54" edge="1">
          <mxGeometry relative="1" as="geometry" />
        </mxCell>
        <mxCell id="HcgYKYY__qKRsnIzj4oO-93" value="False" style="edgeLabel;html=1;align=center;verticalAlign=middle;resizable=0;points=[];" parent="HcgYKYY__qKRsnIzj4oO-91" vertex="1" connectable="0">
          <mxGeometry x="-0.5" y="2" relative="1" as="geometry">
            <mxPoint as="offset" />
          </mxGeometry>
        </mxCell>
        <mxCell id="HcgYKYY__qKRsnIzj4oO-43" value="location &amp;gt;= 0 &amp;amp;&amp;amp; location &amp;lt; value" style="rhombus;whiteSpace=wrap;html=1;" parent="1" vertex="1">
          <mxGeometry x="-840" y="600" width="220" height="80" as="geometry" />
        </mxCell>
        <mxCell id="HcgYKYY__qKRsnIzj4oO-98" style="edgeStyle=orthogonalEdgeStyle;rounded=0;orthogonalLoop=1;jettySize=auto;html=1;entryX=0.5;entryY=0;entryDx=0;entryDy=0;" parent="1" source="HcgYKYY__qKRsnIzj4oO-45" target="HcgYKYY__qKRsnIzj4oO-48" edge="1">
          <mxGeometry relative="1" as="geometry" />
        </mxCell>
        <mxCell id="HcgYKYY__qKRsnIzj4oO-45" value="i=0" style="rounded=0;whiteSpace=wrap;html=1;" parent="1" vertex="1">
          <mxGeometry x="-790" y="744.5" width="120" height="60" as="geometry" />
        </mxCell>
        <mxCell id="HcgYKYY__qKRsnIzj4oO-100" style="edgeStyle=orthogonalEdgeStyle;rounded=0;orthogonalLoop=1;jettySize=auto;html=1;" parent="1" source="HcgYKYY__qKRsnIzj4oO-48" edge="1">
          <mxGeometry relative="1" as="geometry">
            <mxPoint x="-730" y="970" as="targetPoint" />
          </mxGeometry>
        </mxCell>
        <mxCell id="HcgYKYY__qKRsnIzj4oO-101" value="True" style="edgeLabel;html=1;align=center;verticalAlign=middle;resizable=0;points=[];" parent="HcgYKYY__qKRsnIzj4oO-100" vertex="1" connectable="0">
          <mxGeometry x="-0.2265" y="-2" relative="1" as="geometry">
            <mxPoint as="offset" />
          </mxGeometry>
        </mxCell>
        <mxCell id="HcgYKYY__qKRsnIzj4oO-103" style="edgeStyle=orthogonalEdgeStyle;rounded=0;orthogonalLoop=1;jettySize=auto;html=1;entryX=0.5;entryY=0;entryDx=0;entryDy=0;" parent="1" source="HcgYKYY__qKRsnIzj4oO-48" target="HcgYKYY__qKRsnIzj4oO-52" edge="1">
          <mxGeometry relative="1" as="geometry" />
        </mxCell>
        <mxCell id="HcgYKYY__qKRsnIzj4oO-104" value="False" style="edgeLabel;html=1;align=center;verticalAlign=middle;resizable=0;points=[];" parent="HcgYKYY__qKRsnIzj4oO-103" vertex="1" connectable="0">
          <mxGeometry x="0.2519" y="1" relative="1" as="geometry">
            <mxPoint as="offset" />
          </mxGeometry>
        </mxCell>
        <mxCell id="HcgYKYY__qKRsnIzj4oO-48" value="i&amp;lt;*value-1" style="rhombus;whiteSpace=wrap;html=1;" parent="1" vertex="1">
          <mxGeometry x="-770" y="850" width="80" height="80" as="geometry" />
        </mxCell>
        <mxCell id="HcgYKYY__qKRsnIzj4oO-105" style="edgeStyle=orthogonalEdgeStyle;rounded=0;orthogonalLoop=1;jettySize=auto;html=1;entryX=0.5;entryY=0;entryDx=0;entryDy=0;" parent="1" source="HcgYKYY__qKRsnIzj4oO-50" target="HcgYKYY__qKRsnIzj4oO-51" edge="1">
          <mxGeometry relative="1" as="geometry" />
        </mxCell>
        <mxCell id="HcgYKYY__qKRsnIzj4oO-50" value="dsSinhVien[i] = dsSinhVien[i + 1]" style="rounded=0;whiteSpace=wrap;html=1;" parent="1" vertex="1">
          <mxGeometry x="-790" y="970" width="120" height="60" as="geometry" />
        </mxCell>
        <mxCell id="HcgYKYY__qKRsnIzj4oO-132" style="edgeStyle=orthogonalEdgeStyle;rounded=0;orthogonalLoop=1;jettySize=auto;html=1;" parent="1" source="HcgYKYY__qKRsnIzj4oO-51" edge="1">
          <mxGeometry relative="1" as="geometry">
            <mxPoint x="-730" y="1250" as="targetPoint" />
          </mxGeometry>
        </mxCell>
        <mxCell id="HcgYKYY__qKRsnIzj4oO-51" value="i++" style="rounded=0;whiteSpace=wrap;html=1;" parent="1" vertex="1">
          <mxGeometry x="-790" y="1070" width="120" height="60" as="geometry" />
        </mxCell>
        <mxCell id="HcgYKYY__qKRsnIzj4oO-133" style="edgeStyle=orthogonalEdgeStyle;rounded=0;orthogonalLoop=1;jettySize=auto;html=1;" parent="1" source="HcgYKYY__qKRsnIzj4oO-52" edge="1">
          <mxGeometry relative="1" as="geometry">
            <mxPoint x="-580" y="1250" as="targetPoint" />
          </mxGeometry>
        </mxCell>
        <mxCell id="HcgYKYY__qKRsnIzj4oO-52" value="(*value)--" style="rounded=0;whiteSpace=wrap;html=1;" parent="1" vertex="1">
          <mxGeometry x="-640" y="960" width="120" height="60" as="geometry" />
        </mxCell>
        <mxCell id="HcgYKYY__qKRsnIzj4oO-134" style="edgeStyle=orthogonalEdgeStyle;rounded=0;orthogonalLoop=1;jettySize=auto;html=1;" parent="1" source="HcgYKYY__qKRsnIzj4oO-54" edge="1">
          <mxGeometry relative="1" as="geometry">
            <mxPoint x="-540" y="1250" as="targetPoint" />
          </mxGeometry>
        </mxCell>
        <mxCell id="HcgYKYY__qKRsnIzj4oO-54" value="Khong hop le" style="shape=parallelogram;perimeter=parallelogramPerimeter;whiteSpace=wrap;html=1;fixedSize=1;" parent="1" vertex="1">
          <mxGeometry x="-600" y="720" width="120" height="60" as="geometry" />
        </mxCell>
        <mxCell id="HcgYKYY__qKRsnIzj4oO-112" style="edgeStyle=orthogonalEdgeStyle;rounded=0;orthogonalLoop=1;jettySize=auto;html=1;entryX=0.5;entryY=0;entryDx=0;entryDy=0;" parent="1" source="HcgYKYY__qKRsnIzj4oO-56" target="HcgYKYY__qKRsnIzj4oO-59" edge="1">
          <mxGeometry relative="1" as="geometry" />
        </mxCell>
        <mxCell id="HcgYKYY__qKRsnIzj4oO-56" value="i=0" style="rounded=0;whiteSpace=wrap;html=1;" parent="1" vertex="1">
          <mxGeometry x="-1050" y="450" width="120" height="60" as="geometry" />
        </mxCell>
        <mxCell id="HcgYKYY__qKRsnIzj4oO-113" style="edgeStyle=orthogonalEdgeStyle;rounded=0;orthogonalLoop=1;jettySize=auto;html=1;" parent="1" source="HcgYKYY__qKRsnIzj4oO-59" edge="1">
          <mxGeometry relative="1" as="geometry">
            <mxPoint x="-990" y="700" as="targetPoint" />
          </mxGeometry>
        </mxCell>
        <mxCell id="HcgYKYY__qKRsnIzj4oO-114" value="True" style="edgeLabel;html=1;align=center;verticalAlign=middle;resizable=0;points=[];" parent="HcgYKYY__qKRsnIzj4oO-113" vertex="1" connectable="0">
          <mxGeometry x="-0.1017" relative="1" as="geometry">
            <mxPoint as="offset" />
          </mxGeometry>
        </mxCell>
        <mxCell id="HcgYKYY__qKRsnIzj4oO-59" value="i&amp;lt;value" style="rhombus;whiteSpace=wrap;html=1;" parent="1" vertex="1">
          <mxGeometry x="-1060" y="550" width="140" height="80" as="geometry" />
        </mxCell>
        <mxCell id="HcgYKYY__qKRsnIzj4oO-131" style="edgeStyle=orthogonalEdgeStyle;rounded=0;orthogonalLoop=1;jettySize=auto;html=1;" parent="1" source="HcgYKYY__qKRsnIzj4oO-60" edge="1">
          <mxGeometry relative="1" as="geometry">
            <mxPoint x="-1460" y="860" as="targetPoint" />
          </mxGeometry>
        </mxCell>
        <mxCell id="HcgYKYY__qKRsnIzj4oO-60" value="i++" style="rounded=0;whiteSpace=wrap;html=1;" parent="1" vertex="1">
          <mxGeometry x="-1050" y="830" width="120" height="60" as="geometry" />
        </mxCell>
        <mxCell id="HcgYKYY__qKRsnIzj4oO-115" style="edgeStyle=orthogonalEdgeStyle;rounded=0;orthogonalLoop=1;jettySize=auto;html=1;" parent="1" source="HcgYKYY__qKRsnIzj4oO-62" edge="1">
          <mxGeometry relative="1" as="geometry">
            <mxPoint x="-990" y="830" as="targetPoint" />
          </mxGeometry>
        </mxCell>
        <mxCell id="HcgYKYY__qKRsnIzj4oO-62" value="sinhVien-&amp;gt;name&lt;br&gt;sinhVien-&amp;gt;age&lt;br&gt;sinhVien-&amp;gt;number&lt;br&gt;sinhVien-&amp;gt;email" style="shape=parallelogram;perimeter=parallelogramPerimeter;whiteSpace=wrap;html=1;fixedSize=1;" parent="1" vertex="1">
          <mxGeometry x="-1075" y="700" width="170" height="80" as="geometry" />
        </mxCell>
        <mxCell id="HcgYKYY__qKRsnIzj4oO-130" style="edgeStyle=orthogonalEdgeStyle;rounded=0;orthogonalLoop=1;jettySize=auto;html=1;" parent="1" source="HcgYKYY__qKRsnIzj4oO-123" edge="1">
          <mxGeometry relative="1" as="geometry">
            <mxPoint x="-1460" y="410" as="targetPoint" />
          </mxGeometry>
        </mxCell>
        <mxCell id="HcgYKYY__qKRsnIzj4oO-123" value="Khong hop le" style="shape=parallelogram;perimeter=parallelogramPerimeter;whiteSpace=wrap;html=1;fixedSize=1;" parent="1" vertex="1">
          <mxGeometry x="-1315" y="460" width="150" height="60" as="geometry" />
        </mxCell>
        <mxCell id="HcgYKYY__qKRsnIzj4oO-127" value="End" style="ellipse;whiteSpace=wrap;html=1;" parent="1" vertex="1">
          <mxGeometry x="-1510" y="320" width="120" height="80" as="geometry" />
        </mxCell>
      </root>
    </mxGraphModel>
  </diagram>
</mxfile>
